<?xml version="1.0" standalone="no"?>
<!DOCTYPE svg PUBLIC "-//W3C//DTD SVG 20010904//EN"
 "http://www.w3.org/TR/2001/REC-SVG-20010904/DTD/svg10.dtd">
<svg version="1.0" xmlns="http://www.w3.org/2000/svg"
 width="532.000000pt" height="469.000000pt" viewBox="0 0 532.000000 469.000000"
 preserveAspectRatio="xMidYMid meet">

<g transform="translate(0.000000,469.000000) scale(0.100000,-0.100000)"
fill="#000000" stroke="none">
<path d="M2510 3720 c-98 -13 -111 -23 -134 -97 -6 -18 -4 -22 8 -17 20 8 21
-3 2 -22 -21 -20 -34 -17 -40 9 -10 48 6 -100 18 -168 5 -24 3 -34 -9 -39 -20
-7 -19 -22 2 -30 21 -9 33 10 33 55 0 43 29 77 32 38 0 -13 2 -31 2 -39 1 -12
15 -15 64 -14 90 1 101 18 21 33 -33 6 -40 10 -26 16 9 4 32 5 51 3 30 -3 33
-2 26 17 -4 11 -16 21 -26 23 -45 7 -64 13 -64 21 0 15 81 73 106 76 26 2 105
-21 114 -34 5 -8 65 -41 74 -41 3 0 2 8 -1 17 -4 10 19 -5 50 -32 40 -35 57
-57 57 -75 0 -32 15 -55 29 -46 7 5 10 39 7 103 -5 103 -21 142 -64 153 -11 3
-32 15 -46 27 -53 47 -186 76 -286 63z m137 -36 c37 -10 15 -24 -38 -24 -46 0
-59 7 -42 23 8 9 50 9 80 1z m-217 -58 c0 -3 -4 -8 -10 -11 -5 -3 -10 -1 -10
4 0 6 5 11 10 11 6 0 10 -2 10 -4z"/>
<path d="M2199 3446 c-170 -74 -279 -147 -403 -272 -230 -231 -350 -577 -317
-911 6 -65 14 -131 18 -147 l6 -29 -109 7 c-60 4 -130 9 -156 12 l-48 6 0
-477 0 -477 88 7 c48 3 116 10 152 15 36 5 109 12 162 16 l97 7 3 -164 3 -164
60 -7 c33 -3 164 -16 290 -28 127 -11 316 -29 420 -40 148 -14 210 -16 280 -9
177 19 592 59 723 71 l132 11 0 164 0 163 38 0 c20 0 118 -9 217 -20 99 -11
195 -20 213 -20 l32 0 0 476 0 477 -47 -6 c-27 -4 -106 -9 -177 -13 l-129 -7
7 41 c58 364 -9 668 -205 933 -57 77 -193 210 -264 258 -103 70 -314 168 -329
154 -3 -4 -6 -17 -6 -29 0 -17 7 -25 28 -30 51 -13 177 -76 258 -129 242 -161
407 -410 465 -701 18 -90 20 -131 16 -253 -2 -80 -11 -168 -18 -196 -12 -43
-18 -50 -41 -53 -33 -4 -33 -5 -12 107 30 158 9 383 -49 547 -94 260 -334 506
-588 603 l-27 10 -6 -71 c-8 -81 -20 -112 -48 -125 -17 -7 -68 -111 -68 -139
0 -6 17 -29 38 -51 42 -46 123 -76 252 -94 41 -6 88 -18 105 -26 45 -24 105
-75 105 -90 0 -7 14 -41 30 -75 32 -67 60 -159 60 -201 0 -13 7 -30 16 -38 10
-8 14 -23 11 -43 -5 -34 9 -83 29 -107 8 -8 14 -28 14 -42 0 -15 7 -45 16 -67
12 -30 14 -49 7 -73 -11 -39 -47 -50 -56 -18 -3 12 -1 21 4 21 15 0 10 38 -10
71 -10 17 -16 39 -14 50 3 11 -2 28 -12 39 -10 11 -15 20 -12 20 4 0 0 18 -9
40 -9 22 -13 47 -10 56 3 8 -1 26 -10 39 -9 14 -13 32 -10 41 6 16 -56 194
-80 229 -8 11 -14 27 -14 36 0 13 -7 16 -26 14 -21 -2 -25 1 -21 16 7 27 -9
33 -26 9 -12 -17 -16 -18 -20 -6 -4 9 -1 18 5 22 22 14 -26 34 -79 34 -29 0
-80 9 -112 21 -33 11 -69 21 -81 22 -28 2 -96 61 -116 100 -19 36 -28 26 -39
-43 -10 -65 -30 -107 -57 -121 -36 -19 -182 -12 -229 11 -21 11 -40 28 -42 37
-25 94 -29 114 -24 119 3 4 21 -3 39 -14 85 -51 163 -48 243 10 39 28 99 97
91 106 -3 2 -25 -9 -51 -24 -45 -26 -50 -27 -143 -20 -101 7 -133 22 -148 68
-3 10 -10 18 -17 18 -6 0 -21 10 -34 22 -13 12 -25 19 -28 17 -2 -3 2 -26 10
-52 16 -53 16 -52 -57 -153 -31 -42 -46 -53 -92 -67 -31 -10 -61 -24 -69 -31
-7 -8 -33 -17 -58 -21 -24 -3 -61 -11 -82 -16 -36 -10 -38 -11 -23 -28 9 -10
16 -22 16 -27 0 -4 -7 2 -16 14 -19 27 -35 28 -65 2 -17 -14 -19 -18 -6 -14 9
3 17 1 17 -4 0 -6 -10 -12 -22 -14 -34 -5 -69 -84 -91 -207 -11 -58 -20 -115
-20 -126 1 -11 3 -91 6 -177 l5 -158 -23 0 c-22 0 -23 3 -28 108 -3 59 -5 126
-6 150 0 23 -2 59 -2 80 -1 20 4 60 10 87 7 28 19 79 27 115 20 92 59 166 104
199 22 16 75 37 127 50 48 13 120 37 160 53 62 25 76 36 109 84 l37 54 -13 57
c-8 31 -22 65 -32 75 -10 10 -18 33 -18 52 0 18 -3 54 -6 79 -6 44 -7 45 -33
36 -62 -23 -191 -96 -256 -144 -78 -58 -185 -168 -235 -239 -73 -107 -137
-261 -164 -398 -20 -98 -21 -300 -1 -393 8 -38 15 -76 15 -82 0 -20 -48 -15
-58 5 -33 61 -43 341 -17 473 30 159 104 330 196 456 120 164 319 312 517 383
45 17 61 27 57 37 -3 8 -5 19 -5 24 0 17 -34 9 -111 -25z m141 -1111 c10 -12
9 -16 -5 -21 -17 -7 -38 13 -29 28 8 12 20 10 34 -7z m927 -64 c3 -11 11 -22
19 -25 19 -7 17 -30 -4 -49 -12 -11 -17 -27 -14 -45 l4 -29 -108 -6 c-60 -3
-111 -4 -113 -1 -3 3 1 15 9 28 8 12 24 37 35 56 11 18 30 44 43 59 21 24 23
25 36 9 12 -17 14 -17 31 2 23 25 55 26 62 1z m-627 -61 c0 -11 -6 -20 -14
-20 -9 0 -12 7 -9 20 3 11 9 20 14 20 5 0 9 -9 9 -20z m-2 -79 c9 -26 8 -30
-11 -35 -26 -7 -26 -8 -20 32 6 40 18 41 31 3z m-165 -46 c68 0 86 -10 87 -44
0 -11 -25 -12 -142 -7 -162 8 -188 13 -188 31 0 20 69 35 125 28 28 -4 81 -7
118 -8z m-1023 -35 c91 -6 235 -15 320 -20 85 -6 261 -17 390 -25 129 -8 294
-19 365 -24 82 -6 176 -6 255 -1 69 6 231 17 360 25 129 8 375 24 545 35 171
11 322 20 338 20 l27 0 0 -430 0 -430 -42 5 c-223 25 -385 42 -683 70 -88 9
-200 20 -250 25 -452 48 -337 50 -1000 -15 -143 -14 -330 -32 -415 -40 -85 -8
-213 -21 -285 -29 -71 -7 -133 -12 -137 -9 -5 2 -8 195 -8 429 l0 424 28 0
c15 0 101 -5 192 -10z m1227 -809 c24 -38 -22 -43 -57 -6 l-23 25 34 0 c23 0
38 -6 46 -19z m-907 -160 c0 -144 -1 -141 72 -141 22 0 79 -4 127 -10 101 -12
467 -48 596 -59 90 -8 206 0 515 33 80 9 192 21 250 26 58 6 124 13 148 16
l42 5 0 130 c0 123 1 129 20 129 20 0 20 -5 18 -147 l-3 -148 -115 -12 c-812
-82 -776 -80 -1035 -55 -116 12 -284 28 -375 37 -91 8 -193 18 -227 21 l-63 6
0 149 c0 126 2 149 15 149 13 0 15 -21 15 -129z m332 77 c3 -43 3 -43 46 -46
l42 -3 0 45 c0 46 0 46 35 46 l35 0 0 -120 0 -120 -35 0 c-35 0 -35 0 -35 45
0 25 -4 45 -10 46 -73 7 -75 6 -78 -45 -3 -47 -4 -47 -35 -44 l-32 3 -3 104
c-1 58 0 111 2 118 3 7 19 13 35 13 28 0 30 -3 33 -42z m386 30 c16 -16 16
-200 0 -216 -16 -16 -160 -16 -176 0 -8 8 -12 47 -12 108 0 61 4 100 12 108 7
7 42 12 88 12 46 0 81 -5 88 -12z m250 -101 c23 -61 42 -115 42 -119 0 -5 -15
-8 -34 -8 -25 0 -35 5 -39 20 -4 16 -14 20 -52 20 -38 0 -48 -4 -52 -20 -4
-15 -14 -20 -39 -20 -19 0 -34 3 -34 6 0 3 19 57 42 120 l41 114 41 0 41 0 43
-113z m178 51 l39 -63 3 63 3 63 32 -3 32 -3 0 -115 0 -115 -31 -3 c-28 -3
-35 3 -70 57 -21 34 -42 61 -46 61 -5 0 -8 -27 -8 -60 l0 -60 -30 0 -30 0 0
120 0 120 34 0 c30 0 37 -6 72 -62z m352 35 c3 -22 0 -23 -61 -23 l-65 0 -3
-32 c-2 -18 -3 -48 -1 -65 3 -30 6 -33 38 -33 24 0 34 5 34 15 0 8 -9 15 -20
15 -15 0 -20 7 -20 25 0 24 3 25 55 25 l55 0 0 -52 c0 -76 -15 -88 -110 -88
-46 0 -81 5 -88 12 -17 17 -16 200 0 216 9 9 40 12 98 10 80 -3 85 -4 88 -25z"/>
<path d="M1280 1629 l0 -382 43 7 c41 7 399 42 712 71 88 8 207 20 265 26 371
38 374 38 625 9 50 -6 182 -19 295 -30 113 -11 318 -31 455 -45 138 -13 269
-27 293 -31 l42 -7 0 382 0 381 -52 0 c-55 0 -76 -2 -743 -47 -220 -15 -474
-27 -565 -27 -91 0 -345 12 -565 27 -220 15 -465 32 -545 37 -80 5 -171 10
-202 10 l-58 0 0 -381z m1530 252 c13 -25 13 -31 -1 -31 -6 0 -17 -6 -25 -14
-12 -13 -11 -18 11 -42 25 -27 34 -74 15 -74 -6 0 -15 11 -20 25 -8 20 -16 25
-45 25 l-35 0 0 -50 0 -50 40 0 c22 0 40 -4 40 -10 0 -5 -18 -10 -40 -10 l-40
0 0 -55 0 -55 40 0 c37 0 42 4 55 33 10 23 14 27 15 12 0 -11 3 -30 6 -42 6
-23 5 -23 -100 -23 -97 0 -130 9 -91 24 12 4 15 26 15 111 0 85 -3 107 -15
111 -23 9 -18 24 8 24 15 0 27 11 37 33 16 35 56 49 71 25 7 -10 9 -9 9 4 0 9
-5 20 -10 23 -16 10 -1 25 25 25 14 0 29 -8 35 -19z m1018 -13 c-4 -19 -30
-36 -46 -30 -11 4 -13 0 -7 -16 7 -24 2 -27 -24 -13 -9 5 -23 6 -30 1 -10 -5
-3 -10 20 -15 87 -18 134 -126 95 -220 -13 -31 -47 -60 -58 -50 -2 3 -19 0
-37 -5 -26 -7 -41 -5 -70 10 -42 22 -58 45 -67 97 -12 75 12 124 82 170 16 11
17 12 2 7 -22 -8 -23 5 -2 35 13 17 24 22 45 19 17 -3 34 1 40 9 14 17 60 17
57 1z m-2198 -16 c0 -20 -33 -56 -42 -46 -3 3 -9 0 -13 -6 -3 -6 -3 -10 2 -9
4 1 27 1 51 0 41 -1 42 -2 42 -36 0 -40 -11 -45 -25 -12 -7 16 -20 23 -47 25
l-38 3 0 -50 0 -51 40 0 c22 0 40 -4 40 -10 0 -5 -18 -10 -40 -10 l-40 0 0
-55 0 -55 38 0 c41 0 62 14 62 42 0 10 5 18 10 18 6 0 10 -18 10 -40 l0 -40
-105 0 c-63 0 -105 4 -105 10 0 6 7 10 15 10 8 0 15 3 16 8 0 4 2 51 3 106 2
88 0 101 -18 117 -19 19 -19 19 27 19 36 0 47 4 47 15 0 9 7 27 16 40 19 30
54 34 54 7z m1872 -79 c17 -16 24 -44 12 -55 -11 -12 -43 5 -46 24 -3 22 -33
47 -43 36 -3 -3 -8 -21 -11 -40 -6 -32 -4 -35 45 -61 56 -31 71 -51 71 -94 0
-36 -11 -52 -39 -58 -12 -2 -31 -7 -41 -10 -28 -9 -87 20 -95 46 -5 16 -2 26
11 36 20 15 21 13 38 -40 4 -14 14 -17 38 -15 29 3 33 7 36 34 3 28 -2 34 -55
65 -53 32 -58 38 -61 73 -3 40 9 63 43 77 27 11 74 3 97 -18z m-1577 -8 c18
-17 25 -35 25 -63 0 -61 -19 -78 -92 -81 -14 -1 -18 -10 -18 -41 0 -22 5 -40
10 -40 6 0 10 -4 10 -10 0 -5 -25 -10 -55 -10 -53 0 -72 11 -40 24 12 4 15 26
15 111 0 85 -3 107 -15 111 -35 14 -10 24 60 24 67 0 79 -3 100 -25z m401 2
c20 -17 27 -32 26 -57 0 -18 -6 -37 -13 -41 -10 -6 -9 -13 6 -29 24 -26 25
-88 3 -104 -20 -15 -198 -21 -198 -8 0 6 7 12 15 16 12 4 15 27 15 116 0 91
-3 110 -15 110 -8 0 -15 5 -15 10 0 6 31 10 74 10 64 0 79 -3 102 -23z m224
14 c0 -5 -5 -11 -12 -13 -8 -3 -14 -39 -16 -111 -4 -91 -2 -108 12 -113 33
-13 14 -24 -38 -24 -56 0 -82 13 -46 23 18 5 20 14 20 110 0 97 -2 106 -22
120 -22 15 -20 16 40 16 34 1 62 -3 62 -8z m485 -82 l60 -90 3 73 c3 65 1 74
-20 90 -23 18 -23 18 25 18 51 0 55 -3 32 -26 -12 -12 -15 -41 -15 -130 0 -85
-3 -114 -12 -114 -7 1 -44 47 -83 103 l-70 102 -3 -85 c-2 -67 0 -87 13 -96
25 -18 18 -24 -30 -24 -25 0 -45 5 -45 10 0 6 9 10 20 10 19 0 20 7 20 115 0
93 -3 115 -14 115 -8 0 -18 5 -21 10 -4 6 11 10 37 10 43 -1 43 -1 103 -91z"/>
<path d="M2720 1810 c-8 -5 -17 -7 -21 -4 -4 2 -10 1 -13 -4 -3 -5 15 -9 40
-11 24 -1 44 0 44 3 0 12 -37 24 -50 16z"/>
<path d="M2671 1694 c0 -11 3 -14 6 -6 3 7 2 16 -1 19 -3 4 -6 -2 -5 -13z"/>
<path d="M2668 1605 c-1 -36 0 -65 5 -65 4 0 7 29 7 65 0 36 -2 65 -4 65 -2 0
-6 -29 -8 -65z"/>
<path d="M3684 1743 c-20 -43 -23 -147 -5 -181 14 -26 62 -30 84 -7 36 35 31
184 -6 210 -34 24 -53 18 -73 -22z"/>
<path d="M3639 1744 c-7 -9 -14 -43 -15 -77 l-3 -62 8 50 c4 28 13 62 19 78
13 31 10 34 -9 11z"/>
<path d="M3800 1649 c0 -33 -5 -70 -11 -82 -10 -21 -10 -21 5 -3 11 13 16 41
16 83 0 35 -2 63 -5 63 -3 0 -5 -27 -5 -61z"/>
<path d="M1518 1773 c7 -3 16 -2 19 1 4 3 -2 6 -13 5 -11 0 -14 -3 -6 -6z"/>
<path d="M1524 1645 c0 -60 1 -84 3 -52 2 32 2 81 0 110 -2 29 -3 3 -3 -58z"/>
<path d="M3376 1745 c-3 -9 -6 -24 -5 -33 0 -9 5 -4 10 12 9 32 6 48 -5 21z"/>
<path d="M3371 1574 c0 -11 3 -14 6 -6 3 7 2 16 -1 19 -3 4 -6 -2 -5 -13z"/>
<path d="M1838 1705 c4 -65 14 -79 40 -53 18 18 15 105 -4 112 -35 14 -39 7
-36 -59z"/>
<path d="M1794 1650 c0 -63 1 -89 3 -57 2 31 2 83 0 115 -2 31 -3 5 -3 -58z"/>
<path d="M1911 1715 c0 -11 -4 -31 -7 -45 -5 -19 -4 -22 5 -14 7 6 11 26 8 45
-2 19 -5 25 -6 14z"/>
<path d="M2198 1773 c7 -3 16 -2 19 1 4 3 -2 6 -13 5 -11 0 -14 -3 -6 -6z"/>
<path d="M2240 1720 c0 -54 14 -65 44 -34 28 28 12 84 -24 84 -17 0 -20 -7
-20 -50z"/>
<path d="M2312 1710 c0 -19 2 -27 5 -17 2 9 2 25 0 35 -3 9 -5 1 -5 -18z"/>
<path d="M2240 1595 c0 -46 3 -55 18 -55 39 0 59 40 43 84 -8 19 -18 26 -36
26 -24 0 -25 -3 -25 -55z"/>
<path d="M2323 1585 c0 -22 2 -30 4 -17 2 12 2 30 0 40 -3 9 -5 -1 -4 -23z"/>
<path d="M2488 1773 c7 -3 16 -2 19 1 4 3 -2 6 -13 5 -11 0 -14 -3 -6 -6z"/>
<path d="M2482 1740 c0 -14 2 -19 5 -12 2 6 2 18 0 25 -3 6 -5 1 -5 -13z"/>
<path d="M2484 1625 c0 -49 1 -71 3 -48 2 23 2 64 0 90 -2 26 -3 8 -3 -42z"/>
<path d="M2948 1773 c7 -3 16 -2 19 1 4 3 -2 6 -13 5 -11 0 -14 -3 -6 -6z"/>
<path d="M2360 1085 l0 -65 40 0 40 0 0 65 0 65 -40 0 -40 0 0 -65z"/>
<path d="M2641 1090 c-9 -28 -8 -30 14 -30 22 0 23 2 14 30 -6 17 -12 30 -14
30 -2 0 -8 -13 -14 -30z"/>
<path d="M2685 3470 c-8 -13 20 -24 42 -16 15 6 15 8 3 16 -20 13 -37 12 -45
0z"/>
<path d="M2675 3409 c-10 -16 -2 -20 46 -20 69 -1 76 2 44 16 -36 17 -81 19
-90 4z"/>
<path d="M2556 3272 c-15 -14 -2 -20 47 -18 28 0 52 5 52 11 0 11 -89 17 -99
7z"/>
<path d="M2499 3169 c-7 -14 -3 -19 23 -24 18 -4 38 -14 46 -21 7 -8 28 -14
45 -14 24 0 28 3 17 10 -8 5 -25 10 -38 10 -15 0 -22 5 -19 13 3 8 25 11 76 9
39 -1 71 2 71 7 0 13 -65 25 -143 26 -55 1 -70 -2 -78 -16z"/>
</g>
</svg>
